<svg width="25" height="22" viewBox="0 0 22 20" fill="none" xmlns="http://www.w3.org/2000/svg">
<path d="M9.99998 19H5.99998L2.49998 15.5C1.99998 15.1667 1.39998 14.1 2.99998 12.5C3.80331 11.6967 5.73264 9.76734 7.81338 7.68661M9.99998 19C11.1569 17.8431 12.8361 16.1639 14.5 14.5M9.99998 19H20M7.81338 7.68661C9.87685 5.62315 12.0892 3.41079 13.5 2.00004C14 1.83337 15.1 1.60004 15.5 2.00004C15.9 2.40004 18.6666 5.16668 20 6.5C20.5 6.83333 21.2 7.8 20 9C19.29 9.71003 16.9111 12.0888 14.5 14.5M7.81338 7.68661L14.5 14.5" stroke="black" stroke-width="2"/>
</svg>
