<svg width="22" height="22" viewBox="0 0 28 28" fill="none" xmlns="http://www.w3.org/2000/svg">
<path d="M25.268 9.8589L17.9251 2.73204C18.2131 2.44408 19.0914 1.60901 20.3008 0.57238C21.5102 -0.464255 22.6764 0.140449 23.1083 0.57238C24.1161 1.58022 26.391 3.89825 27.4276 5.10766C28.4643 6.31706 27.8596 7.3393 27.4276 7.69925L25.268 9.8589Z" fill="black"/>
<path d="M3.23948 17.4177L16.6293 4.02782L17.9251 5.10764L7.12686 15.9059L5.18317 17.6336L4.53528 18.4975C4.31931 18.5695 3.80099 18.6703 3.45545 18.4975C3.1099 18.3247 3.16749 17.7056 3.23948 17.4177Z" fill="black"/>
<path d="M5.6151 20.2252L19.2209 6.6194L21.5966 8.99503L10.5823 19.7933L7.99072 22.3849C7.55879 22.4569 6.56535 22.4713 6.04703 21.953C5.52872 21.4346 5.54312 20.5852 5.6151 20.2252Z" fill="black"/>
<path d="M9.50248 23.4647L22.8923 10.0749L23.9722 11.3706L12.742 22.3849L11.2302 24.1126L10.5823 24.5445C10.4383 24.6165 10.064 24.6741 9.71845 24.3286C9.3729 23.983 9.43049 23.6087 9.50248 23.4647Z" fill="black"/>
<path d="M7.99072 25.8403L0 28L2.37562 20.0093C2.54839 20.3548 3.31147 20.5852 3.67141 20.6572C3.59943 21.2331 3.67141 22.6441 4.53528 23.6807C5.6151 24.9765 7.77476 24.3286 7.55879 24.7605C7.55879 24.7605 7.77476 25.6244 7.99072 25.8403Z" fill="black"/>
</svg>
